<svg xmlns="http://www.w3.org/2000/svg" xmlns:xlink="http://www.w3.org/1999/xlink" width="127.15" height="52.902" viewBox="0 0 127.15 52.902">
  <defs>
    <clipPath id="clip-path">
      <rect id="長方形_16" data-name="長方形 16" width="127.15" height="52.902" fill="none"/>
    </clipPath>
  </defs>
  <g id="logo" transform="translate(0 0)">
    <rect id="長方形_15" data-name="長方形 15" width="127.15" height="52.902" transform="translate(0 0)" fill="#ab2239"/>
    <g id="グループ_8" data-name="グループ 8" transform="translate(0 0)">
      <g id="グループ_7" data-name="グループ 7" clip-path="url(#clip-path)">
        <path id="パス_13" data-name="パス 13" d="M34.158,33.087A2.263,2.263,0,0,1,34.743,33a1.3,1.3,0,0,1,1.046.406c-.346.284-.711.615-1.1,1a2.56,2.56,0,0,1-.126.59c1.715-1.786,2.929-2.715,4.073-2.715l.1,0c-.16-.008-.345-.007-.559,0a3.336,3.336,0,0,0-1.878.733,1.865,1.865,0,0,0-1.268-.733,6.171,6.171,0,0,0-1.95.065,1.806,1.806,0,0,1,1.079.736M45.34,44c.026,0,.051.006.078.006a12.96,12.96,0,0,0,6.573-2.572c1.18-.808,2.683-2.046,3.807-3.013a26.561,26.561,0,0,1,2.552-2.06,32.508,32.508,0,0,1,3.428-2.144A14.409,14.409,0,0,1,67.4,32.25c-1.763-.076-3.859.79-6.079,1.964a32.421,32.421,0,0,0-3.43,2.144,26.561,26.561,0,0,0-2.552,2.06c-1.124.967-2.627,2.205-3.806,3.013a15.458,15.458,0,0,1-5.114,2.37,1.268,1.268,0,0,1-.677-1.441c.214-1.715,2.071-4.43,4-6.36a17.894,17.894,0,0,1,2.49-2.2,5.811,5.811,0,0,1-.7,1.552c-.643,1.072-.643,2.072.572,2.072a1.387,1.387,0,0,0,.207-.028c-.949-.139-.916-1.055-.323-2.044.786-1.358,1.072-2.214.214-2.357a.9.9,0,0,0-.247,0c-.792-.125-2.424.943-4.411,3-1.929,1.929-3.787,4.644-4,6.36C43.4,43.431,44.047,44,45.19,44c.044,0,.1,0,.15-.006m-22.3-.148a.556.556,0,0,0,.088.011c1.358,0,4.073-1.572,6-3.359,2.286-2,4.859-5.072,4.931-6.216.071-.929-.5-1.286-1.287-1.286-.032,0-.067,0-.1.008S32.589,33,32.544,33c-1.429,0-4,1.93-6.573,4.5-2.929,2.857-4.144,4.716-4,5.644a.82.82,0,0,0,.929.715c.043,0,.093-.008.14-.011M28.17,37.5A21.875,21.875,0,0,1,33.375,33.4a1.2,1.2,0,0,1,.228.89c-.071,1.143-2.644,4.215-4.93,6.216a16.638,16.638,0,0,1-4.4,2.937.8.8,0,0,1-.1-.293c-.143-.928,1.072-2.787,4-5.644m41.809-3.929A2.483,2.483,0,0,1,70.053,35a3.4,3.4,0,0,1-1.176,1.892c.1.325.394.537.945.537A3.015,3.015,0,0,0,72.251,35a2.093,2.093,0,0,0-1.929-2.715,5.623,5.623,0,0,0-1.889.078,2.363,2.363,0,0,1,1.227.7.493.493,0,0,1,.319.51M35.331,38.144a26.492,26.492,0,0,0-2.5,3.5c-.5.857-.5,1.429-.215,1.643a.706.706,0,0,0,.538.108A2.834,2.834,0,0,0,34.487,43,21.989,21.989,0,0,0,37.7,40.788c1.151-.933,2.091-1.738,2.822-2.385.161-.147.315-.285.464-.416l.142-.129c.168-.14.324-.279.466-.384.438-.356.889-.7,1.463-1.116a32.477,32.477,0,0,1,3.43-2.144,14.407,14.407,0,0,1,5.624-1.964c-1.763-.076-3.859.79-6.08,1.964A32.465,32.465,0,0,0,42.6,36.358c-.575.421-1.026.761-1.464,1.118-.141.1-.3.243-.464.383l-.137.123q-.227.2-.472.422c-.731.647-1.67,1.452-2.821,2.384a26.48,26.48,0,0,1-2.606,1.869,2.753,2.753,0,0,1,.388-1.012,26.492,26.492,0,0,1,2.5-3.5c1.5-1.858,3.072-3.644,4-4.716.714-.858.572-1.215-.929-1.144a2.483,2.483,0,0,0-.929.2c.17.185.035.5-.34.946-.929,1.071-2.5,2.857-4,4.716m65.135-5.059a2.232,2.232,0,0,1,.579-.086,1.7,1.7,0,0,1,.641.124c-.235.322-.468.642-.686.951a2.251,2.251,0,0,1-.068.64H101a80.765,80.765,0,0,1,6.4-8.2,27.316,27.316,0,0,1,3.9-4.272,3.942,3.942,0,0,1,2.683-1.188c-.08-.007-.164-.01-.257-.01a4.043,4.043,0,0,0-2.816,1.26,38.1,38.1,0,0,0-3.97,4.21c-2.832,3.371-2.773,3.261-4.851,6.06a2.085,2.085,0,0,0-.765-.285,6.356,6.356,0,0,0-1.931.069,1.838,1.838,0,0,1,1.067.732m-45.777.486A2.474,2.474,0,0,1,54.765,35a3.416,3.416,0,0,1-1.178,1.893c.1.325.4.536.947.536A3.02,3.02,0,0,0,56.964,35a2.1,2.1,0,0,0-1.93-2.715,5.626,5.626,0,0,0-1.89.078,2.365,2.365,0,0,1,1.227.7.491.491,0,0,1,.318.509m56.556-7.778c-2.343,2.729-2.04,2.347-6.183,7.635-2.215,2.857-5.288,7.073-5.931,8.216-.5.857-.5,1.429-.214,1.643a.707.707,0,0,0,.539.108A2.84,2.84,0,0,0,100.789,43,21.96,21.96,0,0,0,104,40.788c1.158-.938,2.1-1.746,2.833-2.395.16-.146.313-.284.462-.413l.135-.122c.168-.14.323-.278.465-.383.437-.357.889-.7,1.463-1.117a31.517,31.517,0,0,1,3.5-2.144,15,15,0,0,1,5.918-1.987c-.054,0-.1-.013-.158-.013h-.071a14.43,14.43,0,0,0-6.145,2,31.486,31.486,0,0,0-3.5,2.144c-.577.422-1.029.762-1.467,1.12-.141.1-.3.242-.461.381l-.116.1c-.158.137-.322.284-.493.44-.731.648-1.67,1.452-2.821,2.385a26.48,26.48,0,0,1-2.606,1.869,2.766,2.766,0,0,1,.387-1.012c.643-1.143,3.715-5.359,5.931-8.216,4.143-5.288,3.857-4.925,6.2-7.655,1.411-1.647,1.787-2.072,3.771-4.234-.072-.286-.357-.5-1.072-.5a3.247,3.247,0,0,0-1.267.257.521.521,0,0,1,.141.242c-1.687,1.841-2.007,2.184-3.786,4.255m.318,18.274a.835.835,0,0,0,.085.007c.929,0,3.359-.5,6.5-2.644A45.849,45.849,0,0,0,122.509,38a2.514,2.514,0,0,1,.344-.248.2.2,0,0,0-.015-.038c-.143-.142-.357-.072-.786.286a45.973,45.973,0,0,1-4.358,3.43,16.4,16.4,0,0,1-5.023,2.412,1.494,1.494,0,0,1-.7-1.412,4.01,4.01,0,0,1,.429-1.643,37.062,37.062,0,0,0,6.145-2.286c2.143-1.072,4.429-2.5,4.572-4.359.072-.929-.5-1.929-2.072-1.929h-.071a7.115,7.115,0,0,0-1.279.13,1.683,1.683,0,0,1,1.224,1.8c-.1,1.284-1.222,2.363-2.614,3.262-.2.154-.4.306-.617.453A16.88,16.88,0,0,1,112.833,40c.01-.017.024-.037.035-.054-.979.351-1.905.643-2.662.84a4.01,4.01,0,0,0-.429,1.643,1.472,1.472,0,0,0,1.644,1.644c.042,0,.095,0,.142-.006m-22.223-.219a.564.564,0,0,0,.089.011c1.358,0,4.073-1.572,6-3.359,2.286-2,4.859-5.072,4.931-6.216.071-.929-.5-1.286-1.286-1.286-.032,0-.067,0-.1.008S98.891,33,98.846,33c-1.429,0-4,1.93-6.574,4.5-2.929,2.857-4.143,4.716-4,5.644a.819.819,0,0,0,.928.715c.044,0,.093-.008.14-.011M94.47,37.5A21.865,21.865,0,0,1,99.676,33.4a1.2,1.2,0,0,1,.229.89c-.072,1.143-2.644,4.215-4.931,6.216a16.633,16.633,0,0,1-4.4,2.937.8.8,0,0,1-.1-.293c-.143-.928,1.071-2.787,4-5.644M75.839,44.069a.835.835,0,0,0,.085.007c.929,0,3.359-.5,6.5-2.644a45.937,45.937,0,0,0,4.185-3.277c.1-.1.2-.193.315-.3a24.781,24.781,0,0,1,2-1.572,25.735,25.735,0,0,1,3.287-2,16.163,16.163,0,0,1,6.153-2.034c-1.925-.067-4.323.858-6.61,2.034a25.735,25.735,0,0,0-3.287,2,24.72,24.72,0,0,0-2,1.572c-.112.1-.214.2-.313.292a45.915,45.915,0,0,1-4.187,3.281,16.412,16.412,0,0,1-5.023,2.412,1.5,1.5,0,0,1-.7-1.412,4.009,4.009,0,0,1,.429-1.643A37.017,37.017,0,0,0,82.824,38.5c2.144-1.072,4.43-2.5,4.573-4.359.072-.929-.5-1.929-2.072-1.929h-.072a7.113,7.113,0,0,0-1.278.13,1.683,1.683,0,0,1,1.224,1.8c-.1,1.284-1.222,2.363-2.613,3.261-.2.154-.4.307-.618.455A16.88,16.88,0,0,1,77.109,40c.01-.017.024-.037.035-.054-.979.351-1.905.642-2.662.84a4.009,4.009,0,0,0-.429,1.643A1.472,1.472,0,0,0,75.7,44.075c.042,0,.095,0,.142-.006m49.425-6.353c-.143-.142-.357-.071-.786.286a45.9,45.9,0,0,1-4.358,3.43,16.571,16.571,0,0,1-4.949,2.394,13.182,13.182,0,0,1-4.145,1.251,8.19,8.19,0,0,0,1.09.07c2.429,0,5.073-.929,8.074-2.929a49.823,49.823,0,0,0,4.5-3.572c.428-.358.714-.715.571-.929M60.629,44c.026,0,.05.006.078.006a12.963,12.963,0,0,0,6.574-2.572c1.18-.808,2.683-2.046,3.807-3.013a26.489,26.489,0,0,1,2.551-2.059,31.384,31.384,0,0,1,3.5-2.144,15.009,15.009,0,0,1,5.917-1.988c-.053,0-.1-.013-.157-.013h-.072a14.426,14.426,0,0,0-6.144,2,31.553,31.553,0,0,0-3.5,2.144,26.548,26.548,0,0,0-2.551,2.059c-1.124.967-2.627,2.206-3.807,3.013a15.46,15.46,0,0,1-5.114,2.37,1.27,1.27,0,0,1-.677-1.441c.215-1.715,2.073-4.43,4-6.36a17.821,17.821,0,0,1,2.49-2.2,5.854,5.854,0,0,1-.7,1.552c-.643,1.072-.643,2.072.571,2.072A1.4,1.4,0,0,0,67.6,37.4c-.949-.139-.916-1.055-.322-2.044C68.067,34,68.352,33.143,67.5,33a.9.9,0,0,0-.247,0c-.794-.124-2.425.943-4.411,3-1.929,1.929-3.787,4.644-4,6.36-.143,1.071.5,1.643,1.643,1.643.044,0,.1,0,.151-.006m24.8-1.924a7.347,7.347,0,0,1,2-3.715l-.062-.063a3.481,3.481,0,0,1-.366.349c-.212.195-.495.443-.819.718a8.185,8.185,0,0,0-.81,1.37c-.334.247-.663.486-.973.7a16.57,16.57,0,0,1-4.949,2.394A13.182,13.182,0,0,1,75.3,45.076a8.19,8.19,0,0,0,1.09.07c2.429,0,5.073-.929,8.074-2.929.165-.11.351-.241.543-.38-.015.079-.03.158-.04.237C84.686,44.36,86.329,45,87.9,44.931l.017,0c-1.422-.063-2.75-.782-2.49-2.856m30.293-4.215c1.786-1.215,2.859-2.716,2.929-3.715.072-.643-.214-1-.857-1a.892.892,0,0,0-.108.013c-.041,0-.075-.014-.12-.014-.643,0-1.714.714-3.144,2.073A27.866,27.866,0,0,0,110.634,40c.088-.023.186-.053.277-.078l-.049.078a16.877,16.877,0,0,0,4.859-2.143m.9-2.644a15.843,15.843,0,0,1,1.572-1.334,1.34,1.34,0,0,1,0,.263c-.072,1-1.143,2.5-2.929,3.715a14.559,14.559,0,0,1-1.613.909,26.815,26.815,0,0,1,2.966-3.553m-10.258,7.073c.071-1.429.713-2.715,2.143-4.429l-.072-.072c-.116.117-.4.38-.706.654l-.221.2-.218.2a8.756,8.756,0,0,0-.955,1.652l-.357.293A21.957,21.957,0,0,1,102.758,43a2.94,2.94,0,0,1-1.316.4,9.983,9.983,0,0,1-3.084,1.38,2.991,2.991,0,0,0,.971.147c2.358,0,4.716-1.714,6.145-2.857.161-.128.335-.27.5-.409a5.025,5.025,0,0,0-.074.623c-.071,1.858,1.143,2.859,3.787,2.859.051,0,.1-.007.154-.008-2.432-.075-3.554-1.066-3.485-2.851M95.287,43.431a3.918,3.918,0,0,1,1-2.572l-.072-.071c-.249.22-.526.454-.821.693a4.424,4.424,0,0,0-.4.876,8.96,8.96,0,0,1-3.392,1.49,10.44,10.44,0,0,1-2.555.957,4.2,4.2,0,0,0,1.281.128,10.341,10.341,0,0,0,4.507-1.666c0,.055-.009.113,0,.165.072.857.715,1.5,2.072,1.5.088,0,.177-.007.265-.012-1.222-.06-1.813-.674-1.881-1.489M19.461,39.292c-.048-.23.308-.642,1.022-1.291a27.323,27.323,0,0,1,2.143-1.715,31.985,31.985,0,0,1,3.287-2,15.959,15.959,0,0,1,6.162-2.041c-1.792-.075-4.084.741-6.618,2.041a32.027,32.027,0,0,0-3.287,2A27.113,27.113,0,0,0,20.028,38c-.786.714-1.143,1.143-1,1.358.106.1.251.053.434-.067m9.525,4.139a3.923,3.923,0,0,1,1-2.572l-.072-.071c-.249.22-.525.453-.821.693a4.51,4.51,0,0,0-.4.876,8.946,8.946,0,0,1-3.392,1.49,10.413,10.413,0,0,1-2.555.957,4.2,4.2,0,0,0,1.281.128,10.348,10.348,0,0,0,4.508-1.666c0,.055-.008.113,0,.165.072.857.715,1.5,2.073,1.5.088,0,.177-.007.265-.012-1.221-.06-1.813-.674-1.881-1.489M80,37.859c1.786-1.215,2.859-2.716,2.929-3.715.072-.643-.214-1-.857-1a.893.893,0,0,0-.108.013c-.041,0-.075-.014-.12-.014-.643,0-1.715.714-3.144,2.073A27.865,27.865,0,0,0,74.911,40c.088-.023.186-.053.277-.078L75.138,40A16.864,16.864,0,0,0,80,37.859m.9-2.644a15.844,15.844,0,0,1,1.572-1.334,1.339,1.339,0,0,1,0,.263c-.072,1-1.143,2.5-2.929,3.715a14.65,14.65,0,0,1-1.613.91A26.738,26.738,0,0,1,80.9,35.215m-40.764,6.93A8.255,8.255,0,0,1,42.2,37.859l-.071-.072c-.1.1-.269.254-.466.429-.132.127-.284.268-.461.429l-.174.158a9.218,9.218,0,0,0-.886,1.6c-.156.128-.306.252-.47.385A21.957,21.957,0,0,1,36.458,43a2.944,2.944,0,0,1-1.316.4,10.012,10.012,0,0,1-3.085,1.38,3,3,0,0,0,.971.147c2.358,0,4.716-1.714,6.145-2.857.189-.149.391-.316.591-.48a5.125,5.125,0,0,0-.09.551c-.143,1.93,1.143,3,3.786,3h.072c.055,0,.112,0,.168-.006-2.495-.058-3.709-1.12-3.57-3m15.29,0a8.256,8.256,0,0,1,2.072-4.286l-.072-.072c-.141.141-.435.405-.742.671l-.186.187-.171.156a9.245,9.245,0,0,0-.847,1.509c-.526.412-1.045.8-1.513,1.122a15.8,15.8,0,0,1-4.872,2.312A15.514,15.514,0,0,1,44.8,45.072a7.7,7.7,0,0,0,1.092.075h.071c2.429,0,5.788-1.358,8.288-3.072.253-.169.539-.378.833-.6a5.09,5.09,0,0,0-.116.671c-.143,1.93,1.143,3,3.786,3h.072c.054,0,.112,0,.167-.006-2.495-.058-3.709-1.12-3.569-3m15.218.143c.071-1.429.714-2.715,2.143-4.429l-.072-.072c-.138.139-.516.487-.883.813-.015.015-.029.029-.044.045l-.215.195a8.913,8.913,0,0,0-.914,1.555c-.488.38-.966.738-1.4,1.037a15.8,15.8,0,0,1-4.873,2.312,15.516,15.516,0,0,1-4.293,1.329,7.71,7.71,0,0,0,1.092.075h.072c2.429,0,5.787-1.358,8.288-3.072.226-.151.48-.336.741-.531a4.937,4.937,0,0,0-.1.745c-.071,1.858,1.143,2.859,3.786,2.859.051,0,.1-.007.154-.008-2.432-.075-3.553-1.066-3.485-2.851m-51.512-.214a7.343,7.343,0,0,1,2-3.715l-.072-.072a12.636,12.636,0,0,1-.929.858c-.064.048-.124.091-.181.129a6.155,6.155,0,0,0-1.275,2.8C18.384,44.36,20.028,45,21.6,44.931h.016c-1.422-.063-2.75-.783-2.49-2.856" transform="translate(-8.394 -9.476)" fill="#fff"/>
      </g>
    </g>
  </g>
</svg>
